Coordinates
version=1
nRows=31
nColumns=38
inDegrees=no

Units are S.I. units (second, meters, Newtons, ...)
If the header above contains a line with 'inDegrees', this indicates whether rotational values are in degrees (yes) or radians (no).

endheader
time	pelvis_tilt	pelvis_list	pelvis_rotation	pelvis_tx	pelvis_ty	pelvis_tz	hip_flexion_r	hip_adduction_r	hip_rotation_r	knee_angle_r	ankle_angle_r	subtalar_angle_r	mtp_angle_r	hip_flexion_l	hip_adduction_l	hip_rotation_l	knee_angle_l	ankle_angle_l	subtalar_angle_l	mtp_angle_l	lumbar_extension	lumbar_bending	lumbar_rotation	arm_flex_r	arm_add_r	arm_rot_r	elbow_flex_r	pro_sup_r	wrist_flex_r	wrist_dev_r	arm_flex_l	arm_add_l	arm_rot_l	elbow_flex_l	pro_sup_l	wrist_flex_l	wrist_dev_l
0.11	-0.0880801	-0.00582342	0.100041	0.770762	1.01785	-0.330182	-0.119627	-0.118538	-0.376271	-1.59349	0.0949655	0.1	-4.23075e-05	0.508177	0.0428142	-0.52391	-0.329783	0.0751855	0.1	2.91853e-05	-0.0625107	0.0108099	0.0526956	-0.176905	-0.333522	0.00140171	1.41658	1.5191	0.0999999	-0.0715173	-0.748421	-0.696488	0.286179	1.61254	1.20105	0.0610603	-0.0496122
0.12	-0.0919281	-0.00148512	0.107724	0.767707	1.00979	-0.331507	-0.0520242	-0.149073	-0.362313	-1.73212	0.109595	0.1	-4.23075e-05	0.524642	0.0399955	-0.480826	-0.450479	0.185442	0.1	2.91853e-05	-0.0646526	0.00124954	0.0280317	-0.186975	-0.333192	0.0100828	1.35995	1.51106	0.0999999	-0.0715173	-0.680691	-0.708959	0.311813	1.61893	1.19763	0.0610603	-0.0496122
0.13	-0.0971774	0.000665826	0.113995	0.764509	1.00145	-0.332238	0.0228441	-0.173281	-0.346907	-1.85501	0.126214	0.1	-4.23075e-05	0.534096	0.0349428	-0.442872	-0.555887	0.288516	0.1	2.91853e-05	-0.0655122	-0.00581252	0.0036229	-0.197987	-0.332937	0.017102	1.30558	1.50511	0.0999999	-0.0715173	-0.612037	-0.719144	0.333834	1.62578	1.20122	0.0610603	-0.0496122
0.14	-0.103703	0.000584335	0.118807	0.761123	0.993348	-0.332427	0.104697	-0.191052	-0.330119	-1.96194	0.144806	0.1	-4.23075e-05	0.536279	0.0275281	-0.41027	-0.645735	0.383954	0.1	2.91853e-05	-0.065155	-0.0103012	-0.0204567	-0.209969	-0.332797	0.0225243	1.25354	1.50113	0.0999999	-0.0715173	-0.542607	-0.727	0.35214	1.63317	1.21167	0.0610603	-0.0496122
0.15	-0.111127	-0.0018512	0.122021	0.757624	0.986013	-0.332152	0.192628	-0.202109	-0.312178	-2.05227	0.165265	0.1	-4.23075e-05	0.530452	0.0174092	-0.383608	-0.719313	0.47051	0.1	2.91853e-05	-0.0637908	-0.012002	-0.0439984	-0.222997	-0.332915	0.0265749	1.20408	1.49869	0.0999999	-0.0715173	-0.472881	-0.732392	0.366417	1.64133	1.22848	0.0610603	-0.0496122
0.16	-0.118763	-0.00682766	0.123429	0.75414	0.979829	-0.331539	0.284877	-0.206094	-0.293567	-2.12496	0.187302	0.1	-4.23075e-05	0.515376	0.00408797	-0.363762	-0.775555	0.546123	0.1	2.91853e-05	-0.0618242	-0.0105462	-0.0666688	-0.237188	-0.333595	0.0297022	1.15766	1.4969	0.0999999	-0.0715173	-0.403776	-0.735075	0.376118	1.65071	1.25062	0.0610603	-0.0496122
0.17	-0.125684	-0.0145427	0.122831	0.750834	0.975079	-0.330726	0.378824	-0.202774	-0.275077	-2.17873	0.210353	0.1	-4.23075e-05	0.489557	-0.0129077	-0.351678	-0.813368	0.608149	0.1	2.91853e-05	-0.0598412	-0.00545411	-0.0881032	-0.252685	-0.335325	0.0325472	1.11505	1.49447	0.0999999	-0.0715173	-0.336606	-0.734733	0.380575	1.66202	1.27647	0.0610603	-0.0496122
0.18	-0.13088	-0.0251611	0.120165	0.747913	0.972033	-0.329819	0.471244	-0.192291	-0.257778	-2.21237	0.233531	0.1	-4.23075e-05	0.451685	-0.0337906	-0.348127	-0.832049	0.653678	0.1	2.91853e-05	-0.0585033	0.0037507	-0.108046	-0.26963	-0.338728	0.0357954	1.0772	1.49002	0.0999999	-0.0715173	-0.272911	-0.731082	0.379252	1.67614	1.30389	0.0610603	-0.0496122
0.19	-0.13349	-0.0387243	0.115601	0.745624	0.970926	-0.328908	0.558752	-0.17533	-0.242892	-2.22503	0.255734	0.1	-4.23075e-05	0.40111	-0.0583439	-0.353491	-0.831617	0.679781	0.1	2.91853e-05	-0.058357	0.0174035	-0.126451	-0.28816	-0.344441	0.0399519	1.0452	1.48247	0.0999999	-0.0715173	-0.214198	-0.724021	0.372041	1.69406	1.33045	0.0610603	-0.0496122
0.2	-0.133063	-0.0550788	0.109552	0.744187	0.971854	-0.328087	0.638325	-0.153139	-0.231581	-2.21646	0.275846	0.1	-4.23075e-05	0.338241	-0.0858893	-0.367663	-0.813036	0.683859	0.1	2.91853e-05	-0.059623	0.0355516	-0.1435	-0.308414	-0.352948	0.0451244	1.02005	1.47159	0.0999999	-0.0715173	-0.161707	-0.713772	0.359501	1.71667	1.3538	0.0610603	-0.0496122
0.21	-0.129737	-0.0738343	0.102583	0.743729	0.97474	-0.32743	0.707736	-0.127386	-0.224698	-2.18702	0.292974	0.1	-4.23075e-05	0.264736	-0.115406	-0.390079	-0.778337	0.664162	0.1	2.91853e-05	-0.0620352	0.0578309	-0.159524	-0.330538	-0.364442	0.0508981	1.00246	1.4582	0.0999999	-0.0715173	-0.11626	-0.700957	0.342903	1.74466	1.3721	0.0610603	-0.0496122
0.22	-0.124258	-0.0943508	0.095286	0.744277	0.97934	-0.326962	0.765795	-0.0999491	-0.222592	-2.1377	0.306599	0.1	-4.23075e-05	0.183478	-0.145666	-0.419695	-0.730641	0.620278	0.1	2.91853e-05	-0.0648038	0.0833895	-0.174904	-0.354673	-0.378737	0.0563475	0.992706	1.44403	0.0999999	-0.0715173	-0.0782227	-0.686567	0.324086	1.77838	1.3845	0.0610603	-0.0496122
0.23	-0.117835	-0.115688	0.0881828	0.745785	0.985259	-0.326668	0.812338	-0.0727154	-0.225051	-2.0699	0.316615	0.1	-4.23075e-05	0.0983084	-0.175374	-0.454954	-0.674103	0.553574	0.1	2.91853e-05	-0.0667472	0.110916	-0.18998	-0.380901	-0.395271	0.0601817	0.99059	1.43128	0.0999999	-0.0715173	-0.047526	-0.671838	0.305181	1.8177	1.39135	0.0610603	-0.0496122
0.24	-0.11191	-0.136635	0.0816808	0.748134	0.991978	-0.326518	0.847983	-0.0474308	-0.231379	-1.98523	0.323282	0.1	-4.23075e-05	0.0135913	-0.203247	-0.493654	-0.613754	0.467466	0.1	2.91853e-05	-0.0665722	0.138726	-0.204998	-0.409176	-0.413168	0.0609665	0.99542	1.42195	0.0999999	-0.0715173	-0.0237295	-0.658058	0.288286	1.86194	1.39415	0.0610603	-0.0496122
0.25	-0.107859	-0.155793	0.076058	0.75112	0.998937	-0.326483	0.873795	-0.0255716	-0.2406	-1.88532	0.32713	0.1	-4.23075e-05	-0.0663139	-0.228059	-0.532871	-0.555199	0.367459	0.1	2.91853e-05	-0.0631873	0.164926	-0.220068	-0.439242	-0.431332	0.0573802	1.00611	1.41733	0.0999999	-0.0715173	-0.00611327	-0.646368	0.275197	1.90982	1.39506	0.0610603	-0.0496122
0.26	-0.106731	-0.17172	0.0714493	0.754467	1.00562	-0.326541	0.89093	-0.00821774	-0.251729	-1.7717	0.328884	0.1	-4.23075e-05	-0.137591	-0.248706	-0.569097	-0.504146	0.260773	0.1	2.91853e-05	-0.0559588	0.187617	-0.235109	-0.470595	-0.448581	0.0484754	1.0213	1.41766	0.0999999	-0.0715173	0.00619171	-0.637593	0.267211	1.95953	1.39627	0.0610603	-0.0496122
0.27	-0.109069	-0.183115	0.0678247	0.757877	1.01165	-0.326678	0.900384	0.00406534	-0.264039	-1.64582	0.329385	0.1	-4.23075e-05	-0.197397	-0.264289	-0.598622	-0.465859	0.15553	0.1	2.91853e-05	-0.0448507	0.205127	-0.249806	-0.502477	-0.463771	0.033893	1.03943	1.4221	0.0999999	-0.0715173	0.0140444	-0.632148	0.265005	2.00877	1.39928	0.0610603	-0.0496122
0.28	-0.114835	-0.188999	0.0649701	0.761099	1.01677	-0.326888	0.90287	0.0112929	-0.277247	-1.50923	0.329456	0.1	-4.23075e-05	-0.244125	-0.274188	-0.618126	-0.444618	0.0594746	0.1	2.91853e-05	-0.0304384	0.216215	-0.263598	-0.533909	-0.475948	0.0139843	1.05897	1.42895	0.0999999	-0.0715173	0.0181409	-0.630018	0.268592	2.05496	1.40456	0.0610603	-0.0496122
0.29	-0.123449	-0.188858	0.0624914	0.763978	1.02088	-0.327161	0.898842	0.0140189	-0.291593	-1.36387	0.329745	0.1	-4.23075e-05	-0.277458	-0.278109	-0.625192	-0.443293	-0.021452	0.1	2.91853e-05	-0.0138168	0.220238	-0.27572	-0.563776	-0.48449	-0.0101898	1.07846	1.43606	0.0999999	-0.0715173	0.0189101	-0.630799	0.27735	2.09546	1.41146	0.0610603	-0.0496122
0.3	-0.133906	-0.182737	0.0598482	0.766464	1.02395	-0.327459	0.888632	0.013223	-0.307764	-1.21244	0.330534	0.1	-4.23075e-05	-0.298205	-0.276157	-0.618839	-0.463214	-0.0840543	0.1	2.91853e-05	0.0035784	0.217247	-0.285297	-0.590914	-0.489217	-0.0369989	1.0967	1.44132	0.0999999	-0.0715173	0.0164887	-0.633784	0.290131	2.12781	1.41862	0.0610603	-0.0496122
0.31	-0.144955	-0.171277	0.0564104	0.768586	1.02605	-0.327715	0.87265	0.0101493	-0.326656	-1.05864	0.33157	0.1	-4.23075e-05	-0.308012	-0.268882	-0.599729	-0.50424	-0.128041	0.1	2.91853e-05	0.0201909	0.208017	-0.291469	-0.614227	-0.490449	-0.0644974	1.11283	1.44317	0.0999999	-0.0715173	0.0107811	-0.638059	0.305428	2.14994	1.42449	0.0610603	-0.0496122
0.32	-0.155305	-0.155653	0.0515428	0.770412	1.0272	-0.327847	0.851563	0.00614527	-0.349016	-0.907223	0.332059	0.1	-4.23075e-05	-0.309001	-0.257309	-0.570127	-0.565029	-0.155352	0.1	2.91853e-05	0.0345611	0.193983	-0.293519	-0.632775	-0.488981	-0.0907193	1.12644	1.44089	0.0999999	-0.0715173	0.00158499	-0.642616	0.321587	2.16029	1.42803	0.0610603	-0.0496122
0.33	-0.163818	-0.137449	0.0447062	0.772001	1.02744	-0.327783	0.826395	0.00249257	-0.375032	-0.763818	0.330867	0.1	-4.23075e-05	-0.303413	-0.242862	-0.533406	-0.643321	-0.169095	0.1	2.91853e-05	0.0455049	0.177058	-0.29099	-0.645836	-0.485956	-0.113938	1.13748	1.4348	0.0999999	-0.0715173	-0.0112571	-0.646465	0.337034	2.15798	1.42902	0.0610603	-0.0496122
0.34	-0.16966	-0.11844	0.0355553	0.773379	1.02681	-0.327469	0.798509	0.00028403	-0.403937	-0.634417	0.32689	0.1	-4.23075e-05	-0.293295	-0.227264	-0.49348	-0.736296	-0.172538	0.1	2.91853e-05	0.0522351	0.15937	-0.283766	-0.652912	-0.482679	-0.132842	1.14627	1.42608	0.0999999	-0.0715173	-0.0277148	-0.648748	0.350476	2.14271	1.42824	0.0610603	-0.0496122
0.35	-0.172393	-0.100361	0.0240199	0.774543	1.02534	-0.326879	0.769481	0.000357524	-0.433753	-0.524686	0.319493	0.1	-4.23075e-05	-0.28023	-0.212407	-0.454212	-0.840936	-0.168464	0.1	2.91853e-05	0.0544188	0.142964	-0.27209	-0.653722	-0.480398	-0.146623	1.15337	1.41643	0.0999999	-0.0715173	-0.0474688	-0.648835	0.361075	2.11477	1.4272	0.0610603	-0.0496122
0.36	-0.172003	-0.084693	0.0103504	0.775457	1.02306	-0.326009	0.74089	0.00325464	-0.461392	-0.439238	0.308964	0.1	-4.23075e-05	-0.265139	-0.200173	-0.418785	-0.954342	-0.158935	0.1	2.91853e-05	0.0521635	0.12954	-0.256529	-0.648159	-0.480105	-0.154972	1.15942	1.4076	0.0999999	-0.0715173	-0.0698707	-0.646389	0.368546	2.07488	1.42767	0.0610603	-0.0496122
0.37	-0.168852	-0.0725259	-0.00488406	0.776053	1.02002	-0.32489	0.714075	0.00917305	-0.483274	-0.381078	0.296823	0.1	-4.23075e-05	-0.248191	-0.192222	-0.389201	-1.07395	-0.145324	0.1	2.91853e-05	0.0459315	0.120278	-0.237901	-0.636248	-0.482393	-0.158039	1.1651	1.40087	0.0999999	-0.0715173	-0.0939757	-0.641383	0.373182	2.0241	1.43125	0.0610603	-0.0496122
0.38	-0.163585	-0.064479	-0.0208461	0.776257	1.01621	-0.323584	0.689962	0.0179702	-0.496155	-0.351324	0.285882	0.1	-4.23075e-05	-0.228824	-0.189788	-0.366028	-1.19761	-0.128443	0.1	2.91853e-05	0.0364138	0.115779	-0.21717	-0.618113	-0.487399	-0.156358	1.17099	1.3968	0.0999999	-0.0715173	-0.118653	-0.634083	0.375762	1.96379	1.43901	0.0610603	-0.0496122
0.39	-0.156993	-0.060697	-0.036529	0.776009	1.01164	-0.322185	0.668994	0.0291905	-0.497921	-0.349215	0.28	0.1	-4.23075e-05	-0.205847	-0.193509	-0.348439	-1.32355	-0.108723	0.1	2.91853e-05	0.024423	0.116095	-0.195335	-0.593937	-0.494823	-0.150753	1.17752	1.39519	0.0999999	-0.0715173	-0.142763	-0.624988	0.377384	1.89552	1.45133	0.0610603	-0.0496122
0.4	-0.149931	-0.060899	-0.0508997	0.775266	1.00632	-0.320823	0.651156	0.0421149	-0.488078	-0.372268	0.283465	0.1	-4.23075e-05	-0.177603	-0.203284	-0.334508	-1.45022	-0.0864151	0.1	2.91853e-05	0.0108247	0.120787	-0.173333	-0.563961	-0.504017	-0.142214	1.18501	1.39532	0.0999999	-0.0715173	-0.165374	-0.614751	0.379217	1.82119	1.46798	0.0610603	-0.0496122
0.41	-0.143255	-0.0644374	-0.0630602	0.773991	1.00029	-0.319641	0.636009	0.0558256	-0.467956	-0.416455	0.300027	0.1	-4.23075e-05	-0.142187	-0.218237	-0.32171	-1.57611	-0.0617503	0.1	2.91853e-05	-0.00348522	0.129019	-0.151944	-0.528487	-0.514109	-0.131774	1.19358	1.39633	0.0999999	-0.0715173	-0.18596	-0.604103	0.382263	1.74299	1.48831	0.0610603	-0.0496122
